<svg width="21" height="27" viewBox="0 0 21 27" fill="none" xmlns="http://www.w3.org/2000/svg">
<path d="M20.6032 19.9419L18.8745 18.2132V11.5129C18.8745 7.39886 16.6768 3.9549 12.8442 3.04365V2.13241C12.8442 1.02016 11.9463 0.122314 10.8341 0.122314C9.72184 0.122314 8.82399 1.02016 8.82399 2.13241V3.04365C4.97801 3.9549 2.79371 7.38546 2.79371 11.5129V18.2132L1.06502 19.9419C0.220783 20.7861 0.810411 22.2334 2.00307 22.2334H19.6517C20.8578 22.2334 21.4474 20.7861 20.6032 19.9419ZM16.1943 19.5532H5.47383V11.5129C5.47383 8.1895 7.49733 5.48257 10.8341 5.48257C14.1708 5.48257 16.1943 8.1895 16.1943 11.5129V19.5532ZM10.8341 26.2536C12.3082 26.2536 13.5142 25.0475 13.5142 23.5734H8.15396C8.15396 25.0475 9.34662 26.2536 10.8341 26.2536Z" fill="white"/>
</svg>
