<svg width="477" height="297" viewBox="0 0 477 297" fill="none" xmlns="http://www.w3.org/2000/svg">
<path d="M44.0761 239.468C44.061 239.14 43.9216 238.831 43.6862 238.603C43.4508 238.375 43.1372 238.245 42.8095 238.24C42.4817 238.236 42.1645 238.356 41.9227 238.577C41.6808 238.799 41.5325 239.104 41.508 239.431C41.523 239.758 41.6625 240.067 41.8978 240.296C42.1332 240.524 42.4468 240.653 42.7746 240.658C43.1023 240.663 43.4195 240.542 43.6614 240.321C43.9033 240.1 44.0516 239.795 44.0761 239.468Z" fill="white"/>
<path d="M3.3866 96.7713C3.37159 96.4439 3.23214 96.1345 2.99675 95.9064C2.76136 95.6783 2.44778 95.5486 2.12002 95.5439C1.79227 95.5392 1.47508 95.6597 1.2332 95.881C0.991324 96.1022 0.843004 96.4074 0.818544 96.7343C0.833558 97.0617 0.973007 97.3711 1.2084 97.5992C1.44379 97.8273 1.75737 97.957 2.08512 97.9617C2.41288 97.9664 2.73007 97.8459 2.97195 97.6247C3.21382 97.4034 3.36214 97.0982 3.3866 96.7713Z" fill="white"/>
<path d="M104.736 101.326C104.721 100.999 104.582 100.689 104.346 100.461C104.111 100.233 103.797 100.103 103.469 100.099C103.142 100.094 102.824 100.214 102.583 100.436C102.341 100.657 102.192 100.962 102.168 101.289C102.183 101.616 102.322 101.926 102.558 102.154C102.793 102.382 103.107 102.512 103.434 102.516C103.762 102.521 104.079 102.4 104.321 102.179C104.563 101.958 104.712 101.653 104.736 101.326Z" fill="white"/>
<path d="M63.8732 134.45C63.8582 134.123 63.7187 133.813 63.4833 133.585C63.2479 133.357 62.9343 133.227 62.6066 133.223C62.2788 133.218 61.9616 133.338 61.7198 133.56C61.4779 133.781 61.3296 134.086 61.3051 134.413C61.3201 134.74 61.4596 135.05 61.695 135.278C61.9304 135.506 62.2439 135.636 62.5717 135.64C62.8994 135.645 63.2166 135.525 63.4585 135.303C63.7004 135.082 63.8487 134.777 63.8732 134.45Z" fill="white"/>
<path d="M102.133 199.466C102.118 199.139 101.978 198.829 101.743 198.601C101.508 198.373 101.194 198.243 100.866 198.239C100.539 198.234 100.221 198.354 99.9795 198.576C99.7377 198.797 99.5894 199.102 99.5649 199.429C99.5799 199.756 99.7194 200.066 99.9547 200.294C100.19 200.522 100.504 200.652 100.831 200.656C101.159 200.661 101.476 200.54 101.718 200.319C101.96 200.098 102.108 199.793 102.133 199.466Z" fill="white"/>
<path d="M45.3773 14.5274C45.3623 14.2 45.2229 13.8906 44.9875 13.6625C44.7521 13.4344 44.4385 13.3047 44.1107 13.3C43.783 13.2953 43.4658 13.4158 43.2239 13.6371C42.982 13.8583 42.8337 14.1635 42.8093 14.4904C42.8243 14.8178 42.9637 15.1272 43.1991 15.3553C43.4345 15.5834 43.7481 15.7131 44.0758 15.7178C44.4036 15.7225 44.7208 15.602 44.9627 15.3807C45.2046 15.1595 45.3529 14.8543 45.3773 14.5274Z" fill="white"/>
<path d="M377.599 42.1413C377.643 42.4661 377.81 42.7618 378.065 42.9681C378.319 43.1744 378.643 43.2756 378.97 43.2511C379.297 43.2267 379.602 43.0784 379.823 42.8365C380.045 42.5946 380.165 42.2774 380.16 41.9497C380.116 41.6249 379.95 41.3292 379.695 41.1229C379.44 40.9166 379.116 40.8154 378.79 40.8398C378.463 40.8643 378.158 41.0126 377.936 41.2545C377.715 41.4964 377.595 41.8135 377.599 42.1413Z" fill="white"/>
<path d="M441.599 2.44107C441.643 2.76588 441.81 3.06161 442.065 3.26787C442.319 3.47413 442.643 3.57537 442.97 3.55092C443.297 3.52646 443.602 3.37815 443.823 3.13627C444.045 2.8944 444.165 2.5772 444.16 2.24945C444.116 1.92464 443.95 1.62893 443.695 1.42267C443.44 1.21641 443.116 1.11516 442.79 1.13962C442.463 1.16408 442.158 1.31239 441.936 1.55426C441.715 1.79614 441.595 2.11332 441.599 2.44107Z" fill="white"/>
<path d="M474.356 120.601C474.4 120.926 474.567 121.222 474.822 121.428C475.076 121.634 475.4 121.736 475.727 121.711C476.054 121.687 476.359 121.538 476.58 121.297C476.802 121.055 476.922 120.737 476.917 120.41C476.873 120.085 476.707 119.789 476.452 119.583C476.197 119.377 475.874 119.275 475.547 119.3C475.22 119.324 474.915 119.473 474.693 119.715C474.472 119.956 474.352 120.274 474.356 120.601Z" fill="white"/>
<path d="M255.776 295.019C255.82 295.344 255.987 295.64 256.241 295.846C256.496 296.052 256.82 296.153 257.147 296.129C257.474 296.104 257.779 295.956 258 295.714C258.221 295.472 258.342 295.155 258.337 294.827C258.293 294.503 258.127 294.207 257.872 294.001C257.617 293.794 257.293 293.693 256.966 293.718C256.64 293.742 256.334 293.89 256.113 294.132C255.892 294.374 255.771 294.691 255.776 295.019Z" fill="white"/>
<path d="M368.082 157.772C368.126 158.096 368.293 158.392 368.548 158.598C368.802 158.805 369.126 158.906 369.453 158.881C369.78 158.857 370.085 158.709 370.306 158.467C370.528 158.225 370.648 157.908 370.644 157.58C370.599 157.255 370.433 156.959 370.178 156.753C369.924 156.547 369.6 156.446 369.273 156.47C368.946 156.495 368.641 156.643 368.419 156.885C368.198 157.127 368.078 157.444 368.082 157.772Z" fill="white"/>
<path d="M408.263 106.031C408.307 106.356 408.473 106.652 408.728 106.858C408.983 107.065 409.307 107.166 409.634 107.141C409.96 107.117 410.266 106.969 410.487 106.727C410.708 106.485 410.829 106.168 410.824 105.84C410.78 105.515 410.613 105.219 410.359 105.013C410.104 104.807 409.78 104.706 409.453 104.73C409.126 104.754 408.821 104.903 408.6 105.145C408.379 105.387 408.258 105.704 408.263 106.031Z" fill="white"/>
<path d="M410.824 237.208C410.868 237.533 411.034 237.828 411.289 238.035C411.544 238.241 411.868 238.342 412.195 238.318C412.522 238.293 412.827 238.145 413.048 237.903C413.269 237.661 413.39 237.344 413.385 237.016C413.341 236.691 413.174 236.396 412.92 236.189C412.665 235.983 412.341 235.882 412.014 235.906C411.687 235.931 411.382 236.079 411.161 236.321C410.94 236.563 410.819 236.88 410.824 237.208Z" fill="white"/>
<path d="M286.182 256.019L286.613 256.78H287.488H345.89H348.516L347.181 254.517L287.973 154.183C306.286 148.967 320.271 139.841 329.798 126.74L329.806 126.73C339.602 113.016 344.506 97.69 344.506 80.795C344.506 66.1276 340.959 52.883 333.844 41.1003C326.949 29.042 316.501 19.6008 302.579 12.7597C288.622 5.66117 271.796 2.14673 252.158 2.14673H157.706H156.206V3.64673V255.28V256.78H157.706H208.176H209.676V255.28V158.722H231.095L286.182 256.019Z" stroke="#E0748B" stroke-width="3"/>
<path d="M227.077 118.69L227.028 118.718C226.312 119.11 225.442 119.101 224.732 118.691C224.006 118.271 223.56 117.497 223.56 116.659V47.8833C223.56 47.045 224.006 46.2712 224.733 45.8509C225.458 45.4323 226.352 45.4326 227.077 45.8518L227.078 45.8524L281.792 77.4414H281.791L286.639 80.2405C287.365 80.6593 287.812 81.4338 287.812 82.2713C287.812 83.1088 287.365 83.8834 286.639 84.3021L286.639 84.3022L285.889 84.7351V84.7353L227.077 118.69Z" stroke="#E0748B" stroke-width="3"/>
</svg>
