<svg width="28" height="6" viewBox="0 0 28 6" fill="none" xmlns="http://www.w3.org/2000/svg">
<path d="M14 2.28882e-05C13.4067 2.28882e-05 12.8266 0.17597 12.3333 0.505614C11.8399 0.835259 11.4554 1.30379 11.2284 1.85197C11.0013 2.40015 10.9419 3.00335 11.0576 3.58529C11.1734 4.16724 11.4591 4.70179 11.8787 5.12134C12.2982 5.5409 12.8328 5.82662 13.4147 5.94238C13.9967 6.05814 14.5999 5.99872 15.1481 5.77166C15.6962 5.5446 16.1648 5.16008 16.4944 4.66673C16.8241 4.17339 17 3.59337 17 3.00002C17 2.20437 16.6839 1.44131 16.1213 0.878703C15.5587 0.316094 14.7957 2.28882e-05 14 2.28882e-05ZM3.5 2.28882e-05C2.90666 2.28882e-05 2.32664 0.17597 1.83329 0.505614C1.33994 0.835259 0.955424 1.30379 0.728361 1.85197C0.501298 2.40015 0.441888 3.00335 0.557644 3.58529C0.6734 4.16724 0.959122 4.70179 1.37868 5.12134C1.79824 5.5409 2.33279 5.82662 2.91473 5.94238C3.49667 6.05814 4.09987 5.99872 4.64805 5.77166C5.19623 5.5446 5.66476 5.16008 5.99441 4.66673C6.32405 4.17339 6.5 3.59337 6.5 3.00002C6.5 2.20437 6.18393 1.44131 5.62132 0.878703C5.05871 0.316094 4.29565 2.28882e-05 3.5 2.28882e-05ZM24.5 2.28882e-05C23.9067 2.28882e-05 23.3266 0.17597 22.8333 0.505614C22.3399 0.835259 21.9554 1.30379 21.7284 1.85197C21.5013 2.40015 21.4419 3.00335 21.5576 3.58529C21.6734 4.16724 21.9591 4.70179 22.3787 5.12134C22.7982 5.5409 23.3328 5.82662 23.9147 5.94238C24.4967 6.05814 25.0999 5.99872 25.6481 5.77166C26.1962 5.5446 26.6648 5.16008 26.9944 4.66673C27.3241 4.17339 27.5 3.59337 27.5 3.00002C27.5 2.20437 27.1839 1.44131 26.6213 0.878703C26.0587 0.316094 25.2957 2.28882e-05 24.5 2.28882e-05Z" fill="#B0AFAE"/>
</svg>
