<svg width="49" height="49" viewBox="0 0 49 49" fill="none" xmlns="http://www.w3.org/2000/svg">
<rect x="0.832031" y="1.43567" width="47" height="47" rx="23.5" fill="white" stroke="#B6445D"/>
<path fill-rule="evenodd" clip-rule="evenodd" d="M17.1285 17.0658C16.4377 17.8103 15.851 18.6338 15.4344 19.5758C15.9114 19.9528 16.3884 20.3309 16.865 20.7085C17.4509 21.173 18.0361 21.6368 18.6197 22.0972C18.669 22.1367 18.7239 22.1705 18.7787 22.2044C19.1405 21.1834 19.6943 20.2922 20.4728 19.5476C22.737 17.3816 26.2184 17.3591 28.351 19.3671C28.4867 19.4967 28.5496 19.4281 28.6229 19.3481L28.6229 19.3481C28.6325 19.3376 28.6424 19.3269 28.6526 19.3164C28.9713 18.9906 29.2884 18.6641 29.6054 18.3376C30.1338 17.7936 30.6619 17.2498 31.1964 16.7104C31.3664 16.5412 31.328 16.4622 31.1745 16.3268C28.7513 14.1834 25.9497 13.4219 22.8193 13.9352C20.5824 14.3019 18.691 15.3849 17.1285 17.0658ZM20.0066 28.5107C19.4419 27.8677 19.0636 27.1175 18.7566 26.3165C18.2001 26.7593 17.645 27.2035 17.0899 27.6477C16.5348 28.0919 15.9797 28.5361 15.4232 28.9789C16.0647 30.3496 16.9693 31.5059 18.1261 32.4422C20.9167 34.7098 24.0636 35.2738 27.4682 34.3826C28.9156 34.0047 30.1985 33.2996 31.2895 32.2335C30.3026 31.4438 29.3158 30.6542 28.3289 29.8588C28.2793 29.818 28.2317 29.773 28.1837 29.7277C28.1521 29.6979 28.1203 29.6679 28.0877 29.6388C27.2434 30.1691 26.3443 30.5131 25.352 30.6203C23.2193 30.8459 21.443 30.1409 20.0066 28.5107ZM31.295 32.2333C30.8016 31.8384 30.3081 31.4422 29.8147 31.0459L29.8127 31.0443C29.3199 30.6486 28.8272 30.2529 28.3345 29.8586C28.2647 29.8048 28.2019 29.7438 28.1405 29.6842L28.1405 29.6842C28.1247 29.6689 28.109 29.6536 28.0933 29.6386C28.7621 29.114 29.3213 28.4936 29.6887 27.7039C29.8367 27.388 29.9354 27.0609 30.0341 26.7281C30.0998 26.4968 30.0779 26.4065 29.8038 26.4122C28.629 26.4243 27.4542 26.422 26.2793 26.4197L26.2779 26.4197C25.8084 26.4187 25.339 26.4178 24.8696 26.4178C24.6976 26.4178 24.6099 26.4178 24.5652 26.374C24.5187 26.3284 24.5187 26.2354 24.5187 26.0455C24.5187 25.7597 24.519 25.4734 24.5194 25.187V25.1865C24.5204 24.3259 24.5214 23.4637 24.5132 22.6048C24.5132 22.3848 24.5516 22.3002 24.7928 22.3002C27.0667 22.3086 29.3406 22.3076 31.6145 22.3065C32.3724 22.3062 33.1303 22.3058 33.8882 22.3058C34.0527 22.3058 34.1569 22.3171 34.1843 22.5202C34.5626 25.2502 34.261 27.8562 32.8685 30.2647C32.4463 31.0036 31.9365 31.6749 31.295 32.2333ZM17.09 27.6475C17.6451 27.2033 18.2002 26.7591 18.7567 26.3164C18.3564 24.9457 18.3345 23.575 18.7786 22.21L18.7786 22.21C18.7238 22.1761 18.6689 22.1423 18.6196 22.1028C18.0878 21.6826 17.5561 21.261 17.0243 20.8394C16.4925 20.4177 15.9606 19.9961 15.4288 19.5758C15.4111 19.6102 15.392 19.6447 15.3727 19.6793C15.3383 19.7413 15.3034 19.804 15.2753 19.8691C14.4475 21.7136 14.1679 23.6483 14.42 25.662C14.5681 26.824 14.8806 27.9408 15.4233 28.9787C15.9798 28.5359 16.5349 28.0917 17.09 27.6475Z" fill="#B6445D"/>
</svg>
