<svg width="205" height="66" viewBox="0 0 205 66" fill="none" xmlns="http://www.w3.org/2000/svg">
<rect x="0.332031" y="0.659912" width="65.3209" height="65.3209" rx="32.6604" fill="#B6445D"/>
<path d="M38.1834 50.7711L30.6005 37.3778H27.3506V50.7711H20.457V16.4015H33.3579C36.0169 16.4015 38.2819 16.8775 40.153 17.8295C42.0242 18.7486 43.4193 20.0125 44.3385 21.621C45.2904 23.1966 45.7664 24.9693 45.7664 26.9389C45.7664 29.2039 45.1099 31.2556 43.7968 33.0939C42.4837 34.8994 40.5306 36.1468 37.9372 36.8361L46.1603 50.7711H38.1834Z" fill="white"/>
<path d="M94.2273 44.8251L89.0016 35.7455H86.1601V44.8251H82.4368V22.1261H90.2753C92.0172 22.1261 93.4869 22.4309 94.6845 23.0406C95.9038 23.6502 96.8074 24.4667 97.3953 25.4901C98.005 26.5135 98.3098 27.6566 98.3098 28.9194C98.3098 30.4001 97.8743 31.75 97.0034 32.9693C96.1542 34.1669 94.8369 34.9834 93.0515 35.4189L98.6691 44.8251H94.2273ZM86.1601 32.7734H90.2753C91.6689 32.7734 92.714 32.425 93.4107 31.7282C94.1293 31.0315 94.4885 30.0952 94.4885 28.9194C94.4885 27.7437 94.1402 26.8292 93.4434 26.176C92.7466 25.501 91.6906 25.1635 90.2753 25.1635H86.1601V32.7734ZM119.566 35.3862C119.566 36.0612 119.523 36.6709 119.436 37.2152H105.686C105.795 38.6523 106.328 39.8063 107.286 40.6772C108.244 41.5481 109.42 41.9836 110.813 41.9836C112.817 41.9836 114.232 41.1453 115.059 39.4688H119.076C118.532 41.1236 117.541 42.4844 116.104 43.5513C114.689 44.5965 112.925 45.119 110.813 45.119C109.093 45.119 107.547 44.738 106.176 43.9759C104.826 43.1921 103.759 42.1034 102.975 40.7099C102.213 39.2946 101.832 37.6616 101.832 35.8108C101.832 33.96 102.202 32.3379 102.942 30.9444C103.704 29.5291 104.76 28.4404 106.11 27.6783C107.482 26.9163 109.05 26.5352 110.813 26.5352C112.512 26.5352 114.025 26.9054 115.353 27.6457C116.681 28.386 117.716 29.4311 118.456 30.7811C119.196 32.1093 119.566 33.6443 119.566 35.3862ZM115.68 34.2104C115.658 32.8387 115.168 31.7391 114.21 30.9117C113.252 30.0843 112.065 29.6706 110.65 29.6706C109.365 29.6706 108.266 30.0843 107.351 30.9117C106.437 31.7174 105.893 32.8169 105.718 34.2104H115.68ZM121.989 35.8108C121.989 33.96 122.36 32.3379 123.1 30.9444C123.862 29.5291 124.907 28.4404 126.235 27.6783C127.563 26.9163 129.088 26.5352 130.808 26.5352C132.985 26.5352 134.781 27.0578 136.197 28.1029C137.634 29.1263 138.603 30.596 139.103 32.5121H135.086C134.76 31.6194 134.237 30.9226 133.519 30.4218C132.8 29.921 131.896 29.6706 130.808 29.6706C129.284 29.6706 128.064 30.215 127.15 31.3037C126.257 32.3706 125.811 33.8729 125.811 35.8108C125.811 37.7486 126.257 39.2619 127.15 40.3506C128.064 41.4393 129.284 41.9836 130.808 41.9836C132.963 41.9836 134.389 41.0365 135.086 39.1422H139.103C138.581 40.9711 137.601 42.43 136.164 43.5187C134.727 44.5856 132.942 45.119 130.808 45.119C129.088 45.119 127.563 44.738 126.235 43.9759C124.907 43.1921 123.862 42.1034 123.1 40.7099C122.36 39.2946 121.989 37.6616 121.989 35.8108ZM150.62 45.119C148.921 45.119 147.386 44.738 146.015 43.9759C144.643 43.1921 143.565 42.1034 142.781 40.7099C141.997 39.2946 141.606 37.6616 141.606 35.8108C141.606 33.9818 142.008 32.3597 142.814 30.9444C143.62 29.5291 144.719 28.4404 146.113 27.6783C147.506 26.9163 149.063 26.5352 150.783 26.5352C152.503 26.5352 154.06 26.9163 155.454 27.6783C156.847 28.4404 157.947 29.5291 158.752 30.9444C159.558 32.3597 159.961 33.9818 159.961 35.8108C159.961 37.6398 159.547 39.2619 158.72 40.6772C157.892 42.0925 156.76 43.1921 155.323 43.9759C153.908 44.738 152.34 45.119 150.62 45.119ZM150.62 41.8856C151.578 41.8856 152.471 41.657 153.298 41.1998C154.147 40.7425 154.833 40.0567 155.356 39.1422C155.878 38.2277 156.139 37.1172 156.139 35.8108C156.139 34.5044 155.889 33.4048 155.388 32.5121C154.887 31.5976 154.223 30.9117 153.396 30.4545C152.569 29.9972 151.676 29.7686 150.718 29.7686C149.76 29.7686 148.867 29.9972 148.04 30.4545C147.234 30.9117 146.592 31.5976 146.113 32.5121C145.634 33.4048 145.394 34.5044 145.394 35.8108C145.394 37.7486 145.884 39.251 146.864 40.3179C147.865 41.3631 149.117 41.8856 150.62 41.8856ZM162.4 35.7455C162.4 33.9383 162.77 32.3379 163.511 30.9444C164.273 29.5509 165.296 28.4731 166.581 27.711C167.887 26.9272 169.335 26.5352 170.925 26.5352C172.1 26.5352 173.254 26.7965 174.387 27.3191C175.541 27.8199 176.455 28.4949 177.13 29.344V20.6564H180.886V44.8251H177.13V42.1143C176.52 42.9852 175.671 43.7037 174.583 44.2698C173.516 44.836 172.286 45.119 170.892 45.119C169.324 45.119 167.887 44.7271 166.581 43.9432C165.296 43.1376 164.273 42.0272 163.511 40.6119C162.77 39.1748 162.4 37.5527 162.4 35.7455ZM177.13 35.8108C177.13 34.5697 176.869 33.4919 176.346 32.5774C175.845 31.6629 175.181 30.9662 174.354 30.4871C173.527 30.0081 172.634 29.7686 171.676 29.7686C170.718 29.7686 169.825 30.0081 168.998 30.4871C168.17 30.9444 167.495 31.6303 166.973 32.5448C166.472 33.4375 166.222 34.5044 166.222 35.7455C166.222 36.9866 166.472 38.0753 166.973 39.0115C167.495 39.9478 168.17 40.6663 168.998 41.1671C169.847 41.6461 170.74 41.8856 171.676 41.8856C172.634 41.8856 173.527 41.6461 174.354 41.1671C175.181 40.6881 175.845 39.9913 176.346 39.0768C176.869 38.1406 177.13 37.0519 177.13 35.8108ZM193.582 45.119C191.884 45.119 190.349 44.738 188.977 43.9759C187.605 43.1921 186.528 42.1034 185.744 40.7099C184.96 39.2946 184.568 37.6616 184.568 35.8108C184.568 33.9818 184.971 32.3597 185.776 30.9444C186.582 29.5291 187.682 28.4404 189.075 27.6783C190.469 26.9163 192.025 26.5352 193.746 26.5352C195.466 26.5352 197.023 26.9163 198.416 27.6783C199.81 28.4404 200.909 29.5291 201.715 30.9444C202.52 32.3597 202.923 33.9818 202.923 35.8108C202.923 37.6398 202.509 39.2619 201.682 40.6772C200.855 42.0925 199.722 43.1921 198.285 43.9759C196.87 44.738 195.302 45.119 193.582 45.119ZM193.582 41.8856C194.54 41.8856 195.433 41.657 196.26 41.1998C197.11 40.7425 197.796 40.0567 198.318 39.1422C198.841 38.2277 199.102 37.1172 199.102 35.8108C199.102 34.5044 198.852 33.4048 198.351 32.5121C197.85 31.5976 197.186 30.9117 196.358 30.4545C195.531 29.9972 194.638 29.7686 193.68 29.7686C192.722 29.7686 191.83 29.9972 191.002 30.4545C190.197 30.9117 189.554 31.5976 189.075 32.5121C188.596 33.4048 188.357 34.5044 188.357 35.8108C188.357 37.7486 188.847 39.251 189.826 40.3179C190.828 41.3631 192.08 41.8856 193.582 41.8856Z" fill="#181B1A"/>
<path d="M38.1702 27.5954L30.0348 32.2923H30.0349C29.8724 32.3863 29.6722 32.3863 29.5097 32.2925C29.3472 32.1985 29.2471 32.0253 29.2471 31.8375V22.4437C29.2471 22.2559 29.3472 22.0826 29.5097 21.9887C29.6722 21.8949 29.8724 21.8949 30.0349 21.9888L38.1703 26.6858H38.1702C38.3327 26.7796 38.4328 26.953 38.4328 27.1406C38.4328 27.3282 38.3327 27.5016 38.1702 27.5954V27.5954Z" fill="#B6445D"/>
</svg>
