<svg width="176" height="57" viewBox="0 0 176 57" fill="none" xmlns="http://www.w3.org/2000/svg">
<rect x="0.210938" y="0.923004" width="56" height="56" rx="28" fill="#B6445D"/>
<path d="M32.6614 43.8836L26.1605 32.4014H23.3744V43.8836H17.4644V14.4184H28.5244C30.804 14.4184 32.7458 14.8264 34.3499 15.6426C35.9541 16.4306 37.1501 17.514 37.9381 18.893C38.7542 20.2439 39.1623 21.7636 39.1623 23.4521C39.1623 25.394 38.5995 27.1529 37.4738 28.7288C36.3481 30.2767 34.6736 31.3461 32.4503 31.9371L39.5 43.8836H32.6614Z" fill="white"/>
<path d="M80.708 38.923L76.228 31.139H73.792V38.923H70.6V19.463H77.32C78.8133 19.463 80.0733 19.7243 81.1 20.247C82.1453 20.7697 82.92 21.4697 83.424 22.347C83.9467 23.2243 84.208 24.2043 84.208 25.287C84.208 26.5563 83.8347 27.7137 83.088 28.759C82.36 29.7857 81.2307 30.4857 79.7 30.859L84.516 38.923H80.708ZM73.792 28.591H77.32C78.5147 28.591 79.4107 28.2923 80.008 27.695C80.624 27.0977 80.932 26.295 80.932 25.287C80.932 24.279 80.6333 23.495 80.036 22.935C79.4387 22.3563 78.5333 22.067 77.32 22.067H73.792V28.591ZM102.431 30.831C102.431 31.4097 102.394 31.9323 102.319 32.399H90.5314C90.6247 33.631 91.0821 34.6203 91.9034 35.367C92.7247 36.1137 93.7327 36.487 94.9274 36.487C96.6447 36.487 97.8581 35.7683 98.5674 34.331H102.011C101.545 35.7497 100.695 36.9163 99.4634 37.831C98.2501 38.727 96.7381 39.175 94.9274 39.175C93.4527 39.175 92.1274 38.8483 90.9514 38.195C89.7941 37.523 88.8794 36.5897 88.2074 35.395C87.5541 34.1817 87.2274 32.7817 87.2274 31.195C87.2274 29.6083 87.5447 28.2177 88.1794 27.023C88.8327 25.8097 89.7381 24.8763 90.8954 24.223C92.0714 23.5697 93.4154 23.243 94.9274 23.243C96.3834 23.243 97.6807 23.5603 98.8194 24.195C99.9581 24.8297 100.845 25.7257 101.479 26.883C102.114 28.0217 102.431 29.3377 102.431 30.831ZM99.0994 29.823C99.0807 28.647 98.6607 27.7043 97.8394 26.995C97.0181 26.2857 96.0007 25.931 94.7874 25.931C93.6861 25.931 92.7434 26.2857 91.9594 26.995C91.1754 27.6857 90.7087 28.6283 90.5594 29.823H99.0994ZM104.509 31.195C104.509 29.6083 104.826 28.2177 105.461 27.023C106.114 25.8097 107.01 24.8763 108.149 24.223C109.287 23.5697 110.594 23.243 112.069 23.243C113.935 23.243 115.475 23.691 116.689 24.587C117.921 25.4643 118.751 26.7243 119.181 28.367H115.737C115.457 27.6017 115.009 27.0043 114.393 26.575C113.777 26.1457 113.002 25.931 112.069 25.931C110.762 25.931 109.717 26.3977 108.933 27.331C108.167 28.2457 107.785 29.5337 107.785 31.195C107.785 32.8563 108.167 34.1537 108.933 35.087C109.717 36.0203 110.762 36.487 112.069 36.487C113.917 36.487 115.139 35.675 115.737 34.051H119.181C118.733 35.619 117.893 36.8697 116.661 37.803C115.429 38.7177 113.898 39.175 112.069 39.175C110.594 39.175 109.287 38.8483 108.149 38.195C107.01 37.523 106.114 36.5897 105.461 35.395C104.826 34.1817 104.509 32.7817 104.509 31.195ZM129.054 39.175C127.598 39.175 126.282 38.8483 125.106 38.195C123.93 37.523 123.006 36.5897 122.334 35.395C121.662 34.1817 121.326 32.7817 121.326 31.195C121.326 29.627 121.671 28.2363 122.362 27.023C123.052 25.8097 123.995 24.8763 125.19 24.223C126.384 23.5697 127.719 23.243 129.194 23.243C130.668 23.243 132.003 23.5697 133.198 24.223C134.392 24.8763 135.335 25.8097 136.026 27.023C136.716 28.2363 137.062 29.627 137.062 31.195C137.062 32.763 136.707 34.1537 135.998 35.367C135.288 36.5803 134.318 37.523 133.086 38.195C131.872 38.8483 130.528 39.175 129.054 39.175ZM129.054 36.403C129.875 36.403 130.64 36.207 131.35 35.815C132.078 35.423 132.666 34.835 133.114 34.051C133.562 33.267 133.786 32.315 133.786 31.195C133.786 30.075 133.571 29.1323 133.142 28.367C132.712 27.583 132.143 26.995 131.434 26.603C130.724 26.211 129.959 26.015 129.138 26.015C128.316 26.015 127.551 26.211 126.842 26.603C126.151 26.995 125.6 27.583 125.19 28.367C124.779 29.1323 124.574 30.075 124.574 31.195C124.574 32.8563 124.994 34.1443 125.834 35.059C126.692 35.955 127.766 36.403 129.054 36.403ZM139.153 31.139C139.153 29.5897 139.471 28.2177 140.105 27.023C140.759 25.8283 141.636 24.9043 142.737 24.251C143.857 23.579 145.099 23.243 146.461 23.243C147.469 23.243 148.459 23.467 149.429 23.915C150.419 24.3443 151.203 24.923 151.781 25.651V18.203H155.001V38.923H151.781V36.599C151.259 37.3457 150.531 37.9617 149.597 38.447C148.683 38.9323 147.628 39.175 146.433 39.175C145.089 39.175 143.857 38.839 142.737 38.167C141.636 37.4763 140.759 36.5243 140.105 35.311C139.471 34.079 139.153 32.6883 139.153 31.139ZM151.781 31.195C151.781 30.131 151.557 29.207 151.109 28.423C150.68 27.639 150.111 27.0417 149.401 26.631C148.692 26.2203 147.927 26.015 147.105 26.015C146.284 26.015 145.519 26.2203 144.809 26.631C144.1 27.023 143.521 27.611 143.073 28.395C142.644 29.1603 142.429 30.075 142.429 31.139C142.429 32.203 142.644 33.1363 143.073 33.939C143.521 34.7417 144.1 35.3577 144.809 35.787C145.537 36.1977 146.303 36.403 147.105 36.403C147.927 36.403 148.692 36.1977 149.401 35.787C150.111 35.3763 150.68 34.779 151.109 33.995C151.557 33.1923 151.781 32.259 151.781 31.195ZM165.886 39.175C164.43 39.175 163.114 38.8483 161.938 38.195C160.762 37.523 159.838 36.5897 159.166 35.395C158.494 34.1817 158.158 32.7817 158.158 31.195C158.158 29.627 158.503 28.2363 159.194 27.023C159.884 25.8097 160.827 24.8763 162.022 24.223C163.216 23.5697 164.551 23.243 166.026 23.243C167.5 23.243 168.835 23.5697 170.03 24.223C171.224 24.8763 172.167 25.8097 172.858 27.023C173.548 28.2363 173.894 29.627 173.894 31.195C173.894 32.763 173.539 34.1537 172.83 35.367C172.12 36.5803 171.15 37.523 169.918 38.195C168.704 38.8483 167.36 39.175 165.886 39.175ZM165.886 36.403C166.707 36.403 167.472 36.207 168.182 35.815C168.91 35.423 169.498 34.835 169.946 34.051C170.394 33.267 170.618 32.315 170.618 31.195C170.618 30.075 170.403 29.1323 169.974 28.367C169.544 27.583 168.975 26.995 168.266 26.603C167.556 26.211 166.791 26.015 165.97 26.015C165.148 26.015 164.383 26.211 163.674 26.603C162.983 26.995 162.432 27.583 162.022 28.367C161.611 29.1323 161.406 30.075 161.406 31.195C161.406 32.8563 161.826 34.1443 162.666 35.059C163.524 35.955 164.598 36.403 165.886 36.403Z" fill="white"/>
<path d="M32.6498 24.0149L25.6753 28.0416H25.6754C25.5361 28.1222 25.3645 28.1222 25.2251 28.0418C25.0858 27.9612 25 27.8127 25 27.6517V19.5983C25 19.4373 25.0858 19.2888 25.2251 19.2082C25.3644 19.1278 25.5361 19.1278 25.6754 19.2084L32.65 23.2351H32.6498C32.7891 23.3155 32.875 23.4642 32.875 23.625C32.875 23.7858 32.7891 23.9345 32.6498 24.0149V24.0149Z" fill="#B6445D"/>
</svg>
