<svg width="24" height="24" viewBox="0 0 24 24" fill="none" xmlns="http://www.w3.org/2000/svg">
<path d="M15.9204 12.5822C17.0642 11.6823 17.899 10.4482 18.3088 9.05176C18.7186 7.65528 18.6829 6.1658 18.2068 4.79054C17.7306 3.41528 16.8377 2.22262 15.6521 1.37849C14.4666 0.534367 13.0474 0.0807495 11.592 0.0807495C10.1367 0.0807495 8.7175 0.534367 7.53196 1.37849C6.34641 2.22262 5.45344 3.41528 4.97728 4.79054C4.50113 6.1658 4.46547 7.65528 4.87526 9.05176C5.28505 10.4482 6.11991 11.6823 7.2637 12.5822C5.30379 13.3674 3.59371 14.6697 2.31575 16.3504C1.03778 18.0311 0.239861 20.027 0.00703715 22.1255C-0.00981583 22.2787 0.00367311 22.4337 0.0467335 22.5817C0.0897938 22.7297 0.161582 22.8678 0.258001 22.988C0.452726 23.2309 0.735951 23.3865 1.04537 23.4205C1.35479 23.4545 1.66506 23.3643 1.90792 23.1695C2.15078 22.9748 2.30633 22.6916 2.34037 22.3822C2.59655 20.1016 3.684 17.9953 5.39496 16.4658C7.10591 14.9362 9.32042 14.0907 11.6154 14.0907C13.9103 14.0907 16.1248 14.9362 17.8358 16.4658C19.5467 17.9953 20.6342 20.1016 20.8904 22.3822C20.9221 22.6688 21.0589 22.9336 21.2743 23.1253C21.4898 23.3171 21.7686 23.4222 22.057 23.4205H22.1854C22.4912 23.3853 22.7707 23.2307 22.963 22.9903C23.1553 22.7499 23.2448 22.4433 23.212 22.1372C22.9781 20.0327 22.1759 18.0316 20.8914 16.3484C19.6068 14.6652 17.8884 13.3632 15.9204 12.5822ZM11.592 11.7538C10.6691 11.7538 9.76681 11.4801 8.99938 10.9674C8.23195 10.4546 7.63381 9.72574 7.2806 8.87302C6.92739 8.0203 6.83497 7.08199 7.01504 6.17674C7.1951 5.2715 7.63956 4.43997 8.2922 3.78733C8.94485 3.13468 9.77637 2.69023 10.6816 2.51016C11.5869 2.3301 12.5252 2.42251 13.3779 2.77572C14.2306 3.12893 14.9594 3.72707 15.4722 4.4945C15.985 5.26193 16.2587 6.16418 16.2587 7.08716C16.2587 8.32484 15.767 9.51182 14.8919 10.387C14.0167 11.2622 12.8297 11.7538 11.592 11.7538Z" fill="white"/>
</svg>
