<svg width="28" height="28" viewBox="0 0 28 28" fill="none" xmlns="http://www.w3.org/2000/svg">
<path d="M26.9468 25.2411L22.0001 20.3344C23.9202 17.9403 24.8501 14.9015 24.5985 11.8428C24.3469 8.78414 22.933 5.93812 20.6475 3.88993C18.3619 1.84175 15.3785 0.747085 12.3107 0.831033C9.24283 0.91498 6.32375 2.17115 4.15364 4.34126C1.98353 6.51137 0.727358 9.43046 0.643411 12.4983C0.559463 15.5661 1.65412 18.5496 3.70231 20.8351C5.75049 23.1206 8.59652 24.5346 11.6552 24.7862C14.7138 25.0377 17.7527 24.1079 20.1468 22.1877L25.0534 27.0944C25.1774 27.2194 25.3249 27.3186 25.4873 27.3863C25.6498 27.454 25.8241 27.4888 26.0001 27.4888C26.1761 27.4888 26.3504 27.454 26.5129 27.3863C26.6754 27.3186 26.8228 27.2194 26.9468 27.0944C27.1871 26.8458 27.3214 26.5135 27.3214 26.1677C27.3214 25.822 27.1871 25.4897 26.9468 25.2411ZM12.6668 22.1877C10.8208 22.1877 9.01632 21.6403 7.48146 20.6148C5.9466 19.5892 4.75033 18.1316 4.04391 16.4261C3.33749 14.7207 3.15266 12.8441 3.51279 11.0336C3.87292 9.22307 4.76183 7.56003 6.06712 6.25474C7.37241 4.94945 9.03545 4.06054 10.8459 3.70041C12.6564 3.34028 14.5331 3.52511 16.2385 4.23153C17.9439 4.93795 19.4016 6.13422 20.4272 7.66908C21.4527 9.20394 22.0001 11.0084 22.0001 12.8544C22.0001 15.3298 21.0168 17.7037 19.2664 19.4541C17.5161 21.2044 15.1421 22.1877 12.6668 22.1877Z" fill="white"/>
</svg>
