<svg width="20" height="21" viewBox="0 0 20 21" fill="none" xmlns="http://www.w3.org/2000/svg">
<path d="M19.32 7.80415L17.43 7.17415L18.32 5.39415C18.4102 5.20784 18.4404 4.99811 18.4064 4.79392C18.3723 4.58973 18.2758 4.40113 18.13 4.25415L16 2.12415C15.8522 1.97624 15.6618 1.87836 15.4555 1.84428C15.2493 1.81019 15.0375 1.84163 14.85 1.93415L13.07 2.82415L12.44 0.93415C12.3735 0.737142 12.2472 0.565776 12.0787 0.443898C11.9102 0.32202 11.7079 0.255694 11.5 0.25415H8.5C8.29036 0.253609 8.08585 0.318969 7.91537 0.440992C7.7449 0.563015 7.61709 0.735529 7.55 0.93415L6.92 2.82415L5.14 1.93415C4.95369 1.84393 4.74397 1.81375 4.53978 1.84779C4.33558 1.88182 4.14699 1.97838 4 2.12415L1.87 4.25415C1.72209 4.40192 1.62421 4.59233 1.59013 4.79861C1.55605 5.00489 1.58748 5.21666 1.68 5.40415L2.57 7.18415L0.680003 7.81415C0.482996 7.88069 0.311629 8.00698 0.189751 8.17546C0.0678737 8.34393 0.00154767 8.54622 3.33354e-06 8.75415V11.7541C-0.000537828 11.9638 0.0648223 12.1683 0.186845 12.3388C0.308868 12.5093 0.481382 12.6371 0.680003 12.7041L2.57 13.3341L1.68 15.1142C1.58978 15.3005 1.55961 15.5102 1.59364 15.7144C1.62767 15.9186 1.72423 16.1072 1.87 16.2542L4 18.3841C4.14777 18.5321 4.33818 18.6299 4.54446 18.664C4.75074 18.6981 4.96251 18.6667 5.15 18.5742L6.93 17.6842L7.56 19.5742C7.62709 19.7728 7.7549 19.9453 7.92537 20.0673C8.09585 20.1893 8.30036 20.2547 8.51 20.2542H11.51C11.7196 20.2547 11.9242 20.1893 12.0946 20.0673C12.2651 19.9453 12.3929 19.7728 12.46 19.5742L13.09 17.6842L14.87 18.5742C15.0551 18.6621 15.2628 18.691 15.4649 18.657C15.667 18.6231 15.8538 18.5278 16 18.3841L18.13 16.2542C18.2779 16.1064 18.3758 15.916 18.4099 15.7097C18.444 15.5034 18.4125 15.2916 18.32 15.1041L17.43 13.3241L19.32 12.6941C19.517 12.6276 19.6884 12.5013 19.8103 12.3328C19.9321 12.1644 19.9985 11.9621 20 11.7541V8.75415C20.0005 8.54451 19.9352 8.33999 19.8132 8.16952C19.6911 7.99905 19.5186 7.87124 19.32 7.80415ZM18 11.0341L16.8 11.4341C16.5241 11.5237 16.2709 11.6721 16.0581 11.8693C15.8452 12.0664 15.6778 12.3074 15.5675 12.5757C15.4571 12.844 15.4064 13.1331 15.419 13.4229C15.4315 13.7128 15.5069 13.9964 15.64 14.2541L16.21 15.3941L15.11 16.4942L14 15.8941C13.7436 15.7664 13.4627 15.6952 13.1763 15.6854C12.89 15.6757 12.6049 15.7276 12.3403 15.8375C12.0758 15.9475 11.8379 16.1131 11.6429 16.323C11.4479 16.5329 11.3003 16.7822 11.21 17.0541L10.81 18.2542H9.22L8.82 17.0541C8.73049 16.7782 8.58203 16.525 8.3849 16.3122C8.18778 16.0994 7.94671 15.932 7.67842 15.8216C7.41014 15.7113 7.12105 15.6606 6.83123 15.6731C6.5414 15.6856 6.25777 15.7611 6 15.8941L4.86 16.4641L3.76 15.3642L4.36 14.2541C4.4931 13.9964 4.56852 13.7128 4.58105 13.4229C4.59358 13.1331 4.5429 12.844 4.43254 12.5757C4.32218 12.3074 4.15478 12.0664 3.94195 11.8693C3.72912 11.6721 3.47595 11.5237 3.2 11.4341L2 11.0341V9.47415L3.2 9.07415C3.47595 8.98464 3.72912 8.83617 3.94195 8.63905C4.15478 8.44192 4.32218 8.20086 4.43254 7.93257C4.5429 7.66428 4.59358 7.3752 4.58105 7.08537C4.56852 6.79555 4.4931 6.51191 4.36 6.25415L3.79 5.14415L4.89 4.04415L6 4.61415C6.25777 4.74724 6.5414 4.82267 6.83123 4.8352C7.12105 4.84772 7.41014 4.79705 7.67842 4.68669C7.94671 4.57633 8.18778 4.40893 8.3849 4.19609C8.58203 3.98326 8.73049 3.73009 8.82 3.45415L9.22 2.25415H10.78L11.18 3.45415C11.2695 3.73009 11.418 3.98326 11.6151 4.19609C11.8122 4.40893 12.0533 4.57633 12.3216 4.68669C12.5899 4.79705 12.879 4.84772 13.1688 4.8352C13.4586 4.82267 13.7422 4.74724 14 4.61415L15.14 4.04415L16.24 5.14415L15.64 6.25415C15.5122 6.51059 15.4411 6.7915 15.4313 7.07784C15.4215 7.36418 15.4734 7.64928 15.5834 7.91383C15.6934 8.17839 15.8589 8.41622 16.0688 8.61123C16.2787 8.80624 16.5281 8.95388 16.8 9.04415L18 9.44415V11.0341ZM10 6.25415C9.20888 6.25415 8.43552 6.48875 7.77772 6.92827C7.11993 7.3678 6.60724 7.99251 6.30448 8.72342C6.00173 9.45432 5.92252 10.2586 6.07686 11.0345C6.2312 11.8104 6.61217 12.5232 7.17158 13.0826C7.73099 13.642 8.44372 14.023 9.21964 14.1773C9.99557 14.3316 10.7998 14.2524 11.5307 13.9497C12.2616 13.6469 12.8864 13.1342 13.3259 12.4764C13.7654 11.8186 14 11.0453 14 10.2541C14 9.19328 13.5786 8.17587 12.8284 7.42572C12.0783 6.67558 11.0609 6.25415 10 6.25415ZM10 12.2541C9.60444 12.2541 9.21776 12.1369 8.88886 11.9171C8.55996 11.6973 8.30362 11.385 8.15224 11.0195C8.00087 10.6541 7.96126 10.2519 8.03843 9.86397C8.1156 9.47601 8.30608 9.11964 8.58579 8.83994C8.86549 8.56023 9.22186 8.36975 9.60982 8.29258C9.99778 8.21541 10.3999 8.25502 10.7654 8.40639C11.1308 8.55777 11.4432 8.81411 11.6629 9.14301C11.8827 9.47191 12 9.85859 12 10.2541C12 10.7846 11.7893 11.2933 11.4142 11.6684C11.0391 12.0434 10.5304 12.2541 10 12.2541Z" fill="#B6445D"/>
</svg>
