<svg width="20" height="20" viewBox="0 0 20 20" fill="none" xmlns="http://www.w3.org/2000/svg">
<path d="M4.5 9.00415C3.90905 9.00415 3.32389 8.88775 2.77792 8.66161C2.23196 8.43546 1.73588 8.10399 1.31802 7.68613C0.900156 7.26827 0.568688 6.77219 0.342542 6.22623C0.116396 5.68026 0 5.0951 0 4.50415C0 3.9132 0.116396 3.32804 0.342542 2.78207C0.568688 2.23611 0.900156 1.74003 1.31802 1.32217C1.73588 0.904306 2.23196 0.572839 2.77792 0.346693C3.32389 0.120546 3.90905 0.00415038 4.5 0.00415039C5.69347 0.00415041 6.83807 0.478256 7.68198 1.32217C8.52589 2.16608 9 3.31068 9 4.50415C9 5.69762 8.52589 6.84222 7.68198 7.68613C6.83807 8.53004 5.69347 9.00415 4.5 9.00415ZM5 19.0042C3.80653 19.0042 2.66193 18.53 1.81802 17.6861C0.974106 16.8422 0.5 15.6976 0.5 14.5042C0.5 13.3107 0.974106 12.1661 1.81802 11.3222C2.66193 10.4783 3.80653 10.0042 5 10.0042C6.19347 10.0042 7.33807 10.4783 8.18198 11.3222C9.02589 12.1661 9.5 13.3107 9.5 14.5042C9.5 15.6976 9.02589 16.8422 8.18198 17.6861C7.33807 18.53 6.19347 19.0042 5 19.0042ZM15 9.00415C14.4091 9.00415 13.8239 8.88775 13.2779 8.66161C12.732 8.43546 12.2359 8.10399 11.818 7.68613C11.4002 7.26827 11.0687 6.77219 10.8425 6.22623C10.6164 5.68026 10.5 5.0951 10.5 4.50415C10.5 3.9132 10.6164 3.32804 10.8425 2.78207C11.0687 2.23611 11.4002 1.74003 11.818 1.32217C12.2359 0.904306 12.732 0.572839 13.2779 0.346693C13.8239 0.120546 14.4091 0.00415038 15 0.00415039C16.1935 0.00415041 17.3381 0.478256 18.182 1.32217C19.0259 2.16608 19.5 3.31068 19.5 4.50415C19.5 5.69762 19.0259 6.84222 18.182 7.68613C17.3381 8.53004 16.1935 9.00415 15 9.00415ZM15 19.0042C13.8065 19.0042 12.6619 18.53 11.818 17.6861C10.9741 16.8422 10.5 15.6976 10.5 14.5042C10.5 13.3107 10.9741 12.1661 11.818 11.3222C12.6619 10.4783 13.8065 10.0042 15 10.0042C16.1935 10.0042 17.3381 10.4783 18.182 11.3222C19.0259 12.1661 19.5 13.3107 19.5 14.5042C19.5 15.6976 19.0259 16.8422 18.182 17.6861C17.3381 18.53 16.1935 19.0042 15 19.0042ZM4.5 7.00415C5.16304 7.00415 5.79893 6.74076 6.26777 6.27192C6.73661 5.80308 7 5.16719 7 4.50415C7 3.84111 6.73661 3.20522 6.26777 2.73638C5.79893 2.26754 5.16304 2.00415 4.5 2.00415C3.83696 2.00415 3.20107 2.26754 2.73223 2.73638C2.26339 3.20522 2 3.84111 2 4.50415C2 5.16719 2.26339 5.80308 2.73223 6.27192C3.20107 6.74076 3.83696 7.00415 4.5 7.00415ZM5 17.0042C5.66304 17.0042 6.29893 16.7408 6.76777 16.2719C7.23661 15.8031 7.5 15.1672 7.5 14.5042C7.5 13.8411 7.23661 13.2052 6.76777 12.7364C6.29893 12.2675 5.66304 12.0042 5 12.0042C4.33696 12.0042 3.70107 12.2675 3.23223 12.7364C2.76339 13.2052 2.5 13.8411 2.5 14.5042C2.5 15.1672 2.76339 15.8031 3.23223 16.2719C3.70107 16.7408 4.33696 17.0042 5 17.0042ZM15 7.00415C15.663 7.00415 16.2989 6.74076 16.7678 6.27192C17.2366 5.80308 17.5 5.16719 17.5 4.50415C17.5 3.84111 17.2366 3.20522 16.7678 2.73638C16.2989 2.26754 15.663 2.00415 15 2.00415C14.337 2.00415 13.7011 2.26754 13.2322 2.73638C12.7634 3.20522 12.5 3.84111 12.5 4.50415C12.5 5.16719 12.7634 5.80308 13.2322 6.27192C13.7011 6.74076 14.337 7.00415 15 7.00415ZM15 17.0042C15.663 17.0042 16.2989 16.7408 16.7678 16.2719C17.2366 15.8031 17.5 15.1672 17.5 14.5042C17.5 13.8411 17.2366 13.2052 16.7678 12.7364C16.2989 12.2675 15.663 12.0042 15 12.0042C14.337 12.0042 13.7011 12.2675 13.2322 12.7364C12.7634 13.2052 12.5 13.8411 12.5 14.5042C12.5 15.1672 12.7634 15.8031 13.2322 16.2719C13.7011 16.7408 14.337 17.0042 15 17.0042Z" fill="white"/>
</svg>
