<svg width="20" height="11" viewBox="0 0 20 11" fill="none" xmlns="http://www.w3.org/2000/svg">
<path d="M15 0.25H12C11.45 0.25 11 0.7 11 1.25C11 1.8 11.45 2.25 12 2.25H15C16.65 2.25 18 3.6 18 5.25C18 6.9 16.65 8.25 15 8.25H12C11.45 8.25 11 8.7 11 9.25C11 9.8 11.45 10.25 12 10.25H15C17.76 10.25 20 8.01 20 5.25C20 2.49 17.76 0.25 15 0.25ZM6 5.25C6 5.8 6.45 6.25 7 6.25H13C13.55 6.25 14 5.8 14 5.25C14 4.7 13.55 4.25 13 4.25H7C6.45 4.25 6 4.7 6 5.25ZM8 8.25H5C3.35 8.25 2 6.9 2 5.25C2 3.6 3.35 2.25 5 2.25H8C8.55 2.25 9 1.8 9 1.25C9 0.7 8.55 0.25 8 0.25H5C2.24 0.25 0 2.49 0 5.25C0 8.01 2.24 10.25 5 10.25H8C8.55 10.25 9 9.8 9 9.25C9 8.7 8.55 8.25 8 8.25Z" fill="#B0AFAE"/>
</svg>
