<svg width="18" height="17" viewBox="0 0 18 17" fill="none" xmlns="http://www.w3.org/2000/svg">
<path d="M17.0901 5.54458L12.2501 5.12458L10.3601 0.674578C10.0201 -0.135422 8.86012 -0.135422 8.52012 0.674578L6.63012 5.13458L1.80012 5.54458C0.920121 5.61458 0.560121 6.71458 1.23012 7.29458L4.90012 10.4746L3.80012 15.1946C3.60012 16.0546 4.53012 16.7346 5.29012 16.2746L9.44012 13.7746L13.5901 16.2846C14.3501 16.7446 15.2801 16.0646 15.0801 15.2046L13.9801 10.4746L17.6501 7.29458C18.3201 6.71458 17.9701 5.61458 17.0901 5.54458ZM9.44012 11.9046L5.68012 14.1746L6.68012 9.89458L3.36012 7.01458L7.74012 6.63458L9.44012 2.60458L11.1501 6.64458L15.5301 7.02458L12.2101 9.90458L13.2101 14.1846L9.44012 11.9046Z" fill="#B0AFAE"/>
</svg>
