<svg width="20" height="21" viewBox="0 0 20 21" fill="none" xmlns="http://www.w3.org/2000/svg">
<path d="M5.29101 19.0781L1.15061 19.9984C0.614714 20.1175 0.136638 19.6394 0.255748 19.1036L1.17601 14.9632C0.401543 13.5145 -0.00246185 11.8968 1.12865e-05 10.2542C1.12865e-05 4.73115 4.47701 0.25415 10 0.25415C15.523 0.25415 20 4.73115 20 10.2542C20 15.7772 15.523 20.2542 10 20.2542C8.35737 20.2566 6.73963 19.8526 5.29101 19.0781ZM5.58101 16.9652L6.23401 17.3152C7.39256 17.9343 8.6864 18.2569 10 18.2542C11.5823 18.2542 13.129 17.785 14.4446 16.9059C15.7602 16.0269 16.7855 14.7774 17.391 13.3156C17.9965 11.8538 18.155 10.2453 17.8463 8.69343C17.5376 7.14158 16.7757 5.71612 15.6569 4.5973C14.538 3.47848 13.1126 2.71655 11.5607 2.40787C10.0089 2.09919 8.40035 2.25761 6.93854 2.86311C5.47674 3.46862 4.22731 4.494 3.34825 5.80959C2.4692 7.12518 2.00001 8.6719 2.00001 10.2542C2.00001 11.5882 2.32501 12.8722 2.94001 14.0202L3.28901 14.6732L2.7363 17.1599C2.68866 17.3743 2.87989 17.5655 3.09425 17.5179L5.58101 16.9652Z" fill="white"/>
</svg>
