<svg width="471" height="592" viewBox="0 0 471 592" fill="none" xmlns="http://www.w3.org/2000/svg">
<path d="M15.9793 61.2097C15.9649 60.8824 15.8305 60.5733 15.6038 60.3453C15.377 60.1173 15.0748 59.9878 14.7591 59.983C14.4433 59.9783 14.1377 60.0988 13.9046 60.3199C13.6716 60.5409 13.5287 60.846 13.5052 61.1726C13.5196 61.4999 13.654 61.809 13.8807 62.037C14.1075 62.265 14.4097 62.3945 14.7254 62.3993C15.0412 62.404 15.3468 62.2835 15.5799 62.0624C15.8129 61.8414 15.9558 61.5363 15.9793 61.2097Z" fill="white"/>
<path d="M121.959 106.181C121.945 105.854 121.81 105.545 121.584 105.317C121.357 105.089 121.055 104.959 120.739 104.954C120.423 104.95 120.117 105.07 119.884 105.291C119.651 105.512 119.509 105.817 119.485 106.144C119.499 106.471 119.634 106.78 119.861 107.008C120.087 107.236 120.389 107.366 120.705 107.371C121.021 107.375 121.327 107.255 121.56 107.034C121.793 106.813 121.936 106.508 121.959 106.181Z" fill="white"/>
<path d="M49.7002 164.144C49.6857 163.817 49.5514 163.508 49.3246 163.28C49.0978 163.052 48.7957 162.922 48.4799 162.918C48.1641 162.913 47.8585 163.033 47.6255 163.255C47.3925 163.476 47.2496 163.781 47.226 164.107C47.2405 164.435 47.3748 164.744 47.6016 164.972C47.8284 165.2 48.1305 165.329 48.4463 165.334C48.7621 165.339 49.0677 165.218 49.3007 164.997C49.5337 164.776 49.6766 164.471 49.7002 164.144Z" fill="white"/>
<path d="M169.168 225.106C169.154 224.778 169.02 224.469 168.793 224.241C168.566 224.013 168.264 223.884 167.948 223.879C167.632 223.874 167.327 223.995 167.094 224.216C166.861 224.437 166.718 224.742 166.694 225.069C166.709 225.396 166.843 225.705 167.07 225.933C167.296 226.161 167.599 226.291 167.914 226.295C168.23 226.3 168.536 226.18 168.769 225.958C169.002 225.737 169.145 225.432 169.168 225.106Z" fill="white"/>
<path d="M52.5905 337.035C52.5761 336.707 52.4417 336.398 52.215 336.17C51.9882 335.942 51.686 335.813 51.3703 335.808C51.0545 335.803 50.7489 335.924 50.5158 336.145C50.2828 336.366 50.1399 336.671 50.1164 336.998C50.1308 337.325 50.2652 337.634 50.492 337.862C50.7187 338.09 51.0209 338.22 51.3366 338.224C51.6524 338.229 51.958 338.109 52.1911 337.887C52.4241 337.666 52.567 337.361 52.5905 337.035Z" fill="white"/>
<path d="M280.929 354.024C280.914 353.697 280.78 353.388 280.553 353.16C280.326 352.932 280.024 352.802 279.709 352.797C279.393 352.793 279.087 352.913 278.854 353.134C278.621 353.355 278.478 353.66 278.455 353.987C278.469 354.314 278.603 354.623 278.83 354.851C279.057 355.079 279.359 355.209 279.675 355.214C279.991 355.218 280.296 355.098 280.529 354.877C280.762 354.656 280.905 354.351 280.929 354.024Z" fill="white"/>
<path d="M302.125 194.125C302.11 193.798 301.976 193.489 301.749 193.261C301.522 193.033 301.22 192.903 300.904 192.899C300.589 192.894 300.283 193.014 300.05 193.236C299.817 193.457 299.674 193.762 299.651 194.088C299.665 194.416 299.799 194.725 300.026 194.953C300.253 195.181 300.555 195.31 300.871 195.315C301.187 195.32 301.492 195.199 301.725 194.978C301.958 194.757 302.101 194.452 302.125 194.125Z" fill="white"/>
<path d="M172.059 401.993C172.044 401.666 171.91 401.357 171.683 401.129C171.456 400.901 171.154 400.772 170.838 400.767C170.523 400.762 170.217 400.883 169.984 401.104C169.751 401.325 169.608 401.63 169.584 401.956C169.599 402.284 169.733 402.593 169.96 402.821C170.187 403.049 170.489 403.178 170.805 403.183C171.12 403.188 171.426 403.067 171.659 402.846C171.892 402.625 172.035 402.32 172.059 401.993Z" fill="white"/>
<path d="M407.306 252.245C407.291 251.918 407.157 251.609 406.93 251.381C406.704 251.153 406.401 251.023 406.086 251.019C405.77 251.014 405.464 251.134 405.231 251.355C404.998 251.576 404.855 251.881 404.832 252.208C404.846 252.535 404.98 252.845 405.207 253.072C405.434 253.3 405.736 253.43 406.052 253.435C406.368 253.44 406.673 253.319 406.906 253.098C407.139 252.877 407.282 252.572 407.306 252.245Z" fill="white"/>
<path d="M470.986 154.246C470.973 153.919 470.859 153.609 470.666 153.381C470.472 153.153 470.215 153.023 469.946 153.019C469.677 153.014 469.416 153.134 469.217 153.356C469.019 153.577 468.897 153.882 468.877 154.209C468.889 154.536 469.004 154.846 469.197 155.074C469.39 155.302 469.648 155.432 469.917 155.436C470.186 155.441 470.447 155.32 470.645 155.099C470.844 154.878 470.966 154.573 470.986 154.246Z" fill="white"/>
<path d="M2.49103 439.969C2.47656 439.642 2.34223 439.333 2.11544 439.105C1.88866 438.877 1.58652 438.747 1.27074 438.743C0.954968 438.738 0.649365 438.858 0.41633 439.08C0.183294 439.301 0.0404114 439.606 0.0168454 439.932C0.0313113 440.26 0.165646 440.569 0.392433 440.797C0.619219 441.025 0.921341 441.154 1.23712 441.159C1.55289 441.164 1.85851 441.043 2.09155 440.822C2.32458 440.601 2.46746 440.296 2.49103 439.969Z" fill="white"/>
<path d="M236.61 514.922C236.595 514.595 236.461 514.285 236.234 514.057C236.008 513.829 235.705 513.7 235.39 513.695C235.074 513.69 234.768 513.811 234.535 514.032C234.302 514.253 234.159 514.558 234.136 514.885C234.15 515.212 234.285 515.521 234.511 515.749C234.738 515.977 235.04 516.107 235.356 516.111C235.672 516.116 235.977 515.996 236.21 515.775C236.444 515.554 236.586 515.249 236.61 514.922Z" fill="white"/>
<path d="M438.962 455.246C438.949 454.918 438.835 454.609 438.642 454.381C438.448 454.153 438.191 454.023 437.922 454.019C437.653 454.014 437.392 454.134 437.194 454.356C436.995 454.577 436.873 454.882 436.853 455.209C436.865 455.536 436.98 455.846 437.173 456.074C437.367 456.302 437.624 456.432 437.893 456.436C438.162 456.441 438.423 456.32 438.621 456.099C438.82 455.878 438.942 455.573 438.962 455.246Z" fill="white"/>
<path d="M416.776 576.883C416.761 576.555 416.627 576.246 416.4 576.018C416.173 575.79 415.871 575.661 415.555 575.656C415.24 575.651 414.934 575.772 414.701 575.993C414.468 576.214 414.325 576.519 414.301 576.845C414.316 577.173 414.45 577.482 414.677 577.71C414.904 577.938 415.206 578.067 415.522 578.072C415.837 578.077 416.143 577.956 416.376 577.735C416.609 577.514 416.752 577.209 416.776 576.883Z" fill="white"/>
<path d="M108.471 589.874C108.456 589.547 108.322 589.238 108.095 589.01C107.868 588.782 107.566 588.652 107.251 588.648C106.935 588.643 106.629 588.763 106.396 588.984C106.163 589.206 106.02 589.511 105.997 589.837C106.011 590.164 106.145 590.474 106.372 590.702C106.599 590.93 106.901 591.059 107.217 591.064C107.533 591.069 107.838 590.948 108.071 590.727C108.304 590.506 108.447 590.201 108.471 589.874Z" fill="white"/>
<path d="M94.4571 472.245C94.4426 471.918 94.3083 471.609 94.0815 471.381C93.8547 471.153 93.5526 471.023 93.2368 471.019C92.921 471.014 92.6154 471.134 92.3824 471.355C92.1493 471.576 92.0064 471.881 91.9829 472.208C91.9973 472.535 92.1317 472.845 92.3585 473.072C92.5853 473.3 92.8874 473.43 93.2031 473.435C93.5189 473.44 93.8245 473.319 94.0576 473.098C94.2906 472.877 94.4335 472.572 94.4571 472.245Z" fill="white"/>
<path d="M261.967 120.245C261.952 119.918 261.818 119.609 261.591 119.381C261.364 119.153 261.062 119.023 260.746 119.019C260.431 119.014 260.125 119.134 259.892 119.355C259.659 119.576 259.516 119.881 259.492 120.208C259.507 120.535 259.641 120.845 259.868 121.072C260.095 121.3 260.397 121.43 260.713 121.435C261.029 121.44 261.334 121.319 261.567 121.098C261.8 120.877 261.943 120.572 261.967 120.245Z" fill="white"/>
<path d="M74.7501 1.24517C74.7356 0.917938 74.6013 0.608771 74.3745 0.380801C74.1477 0.152831 73.8455 0.0232528 73.5298 0.0185246C73.214 0.0137963 72.9084 0.134274 72.6754 0.355359C72.4423 0.576444 72.2994 0.88146 72.2759 1.20813C72.2903 1.53536 72.4247 1.84453 72.6515 2.0725C72.8783 2.30047 73.1804 2.43005 73.4961 2.43477C73.8119 2.4395 74.1175 2.31902 74.3506 2.09794C74.5836 1.87685 74.7265 1.57184 74.7501 1.24517Z" fill="white"/>
<path d="M293.991 32.2452C293.976 31.9179 293.842 31.6088 293.615 31.3808C293.388 31.1528 293.086 31.0233 292.77 31.0185C292.455 31.0138 292.149 31.1343 291.916 31.3554C291.683 31.5764 291.54 31.8815 291.516 32.2081C291.531 32.5354 291.665 32.8445 291.892 33.0725C292.119 33.3005 292.421 33.43 292.737 33.4348C293.052 33.4395 293.358 33.319 293.591 33.0979C293.824 32.8769 293.967 32.5718 293.991 32.2452Z" fill="white"/>
<path d="M417.613 3.24597C417.6 2.91853 417.486 2.60916 417.292 2.38105C417.099 2.15293 416.842 2.02327 416.572 2.01854C416.303 2.01381 416.043 2.13437 415.844 2.35559C415.646 2.57682 415.524 2.88203 415.504 3.2089C415.516 3.53634 415.631 3.84571 415.824 4.07382C416.017 4.30193 416.275 4.43159 416.544 4.43633C416.813 4.44106 417.073 4.3205 417.272 4.09928C417.471 3.87805 417.592 3.57284 417.613 3.24597Z" fill="white"/>
<path d="M415.812 366.016C415.798 365.689 415.663 365.38 415.437 365.152C415.21 364.924 414.908 364.794 414.592 364.79C414.276 364.785 413.97 364.905 413.737 365.126C413.504 365.348 413.361 365.653 413.338 365.979C413.352 366.306 413.487 366.616 413.714 366.844C413.94 367.072 414.242 367.201 414.558 367.206C414.874 367.211 415.18 367.09 415.413 366.869C415.646 366.648 415.789 366.343 415.812 366.016Z" fill="white"/>
<path d="M342.59 420.981C342.575 420.654 342.441 420.345 342.214 420.117C341.987 419.889 341.685 419.759 341.369 419.755C341.054 419.75 340.748 419.871 340.515 420.092C340.282 420.313 340.139 420.618 340.116 420.944C340.13 421.272 340.264 421.581 340.491 421.809C340.718 422.037 341.02 422.166 341.336 422.171C341.652 422.176 341.957 422.055 342.19 421.834C342.423 421.613 342.566 421.308 342.59 420.981Z" fill="white"/>
<path d="M397.507 130.166C397.492 129.839 397.358 129.53 397.131 129.302C396.904 129.074 396.602 128.944 396.286 128.939C395.971 128.935 395.665 129.055 395.432 129.276C395.199 129.497 395.056 129.802 395.032 130.129C395.047 130.456 395.181 130.765 395.408 130.993C395.635 131.221 395.937 131.351 396.253 131.356C396.568 131.36 396.874 131.24 397.107 131.019C397.34 130.798 397.483 130.493 397.507 130.166Z" fill="white"/>
</svg>
